<svg width="142" height="51" viewBox="0 0 142 51" fill="none" xmlns="http://www.w3.org/2000/svg">
<g opacity="0.1">
<path opacity="0.1" d="M23.6838 48.6736V49.7987H23.1582" stroke="#20263C" stroke-miterlimit="10"/>
<path opacity="0.1" d="M22.1477 49.7987H2.44141" stroke="#20263C" stroke-miterlimit="10" stroke-dasharray="5.77 5.77"/>
<path opacity="0.1" d="M1.93677 49.7987H1.41113V48.6736" stroke="#20263C" stroke-miterlimit="10"/>
<path opacity="0.1" d="M1.41113 46.5096V4.328" stroke="#20263C" stroke-miterlimit="10" stroke-dasharray="5.77 5.77"/>
<path opacity="0.1" d="M1.41113 3.24404V2.1189H1.93677" stroke="#20263C" stroke-miterlimit="10"/>
<path opacity="0.1" d="M2.94482 2.1189H22.6528" stroke="#20263C" stroke-miterlimit="10" stroke-dasharray="5.77 5.77"/>
<path opacity="0.1" d="M23.1582 2.1189H23.6838V3.24404" stroke="#20263C" stroke-miterlimit="10"/>
<path opacity="0.1" d="M23.6841 5.40808V47.5897" stroke="#20263C" stroke-miterlimit="10" stroke-dasharray="5.77 5.77"/>
</g>
<path opacity="0.8" d="M22.1101 0L1 13.9899V14.0163L17.3238 24.8285L22.1101 21.6507V0Z" fill="#A7A9AC"/>
<path opacity="0.8" d="M1 35.6801L22.1101 49.6567V28.0061L17.3238 24.8284L1 35.6405V35.6801Z" fill="#A7A9AC"/>
<path opacity="0.8" d="M45.2896 14.333L24.1797 0.343018V21.9937L28.9792 25.1714L45.2896 14.3593V14.333Z" fill="#A7A9AC"/>
<path opacity="0.8" d="M24.1797 49.9999L45.2896 36.0098V35.9834L28.9792 25.1713L24.1797 28.349V49.9999Z" fill="#A7A9AC"/>
<path opacity="0.8" d="M1 14.0164V35.6407L17.3238 24.8285L1 14.0164Z" fill="#414042"/>
<path opacity="0.8" d="M45.2908 35.9836V14.3593L28.98 25.1715L45.2908 35.9836Z" fill="#414042"/>
<path d="M69.971 34.5V17.22H80.375V20.112H72.863V24.42H78.935V27.3H72.863V34.5H69.971ZM82.7735 19.572V16.92H85.6655V19.572H82.7735ZM82.7735 34.5V21.54H85.6655V34.5H82.7735ZM98.2241 34.5V28.26C98.2241 27.852 98.1961 27.4 98.1401 26.904C98.0841 26.408 97.9521 25.932 97.7441 25.476C97.5441 25.012 97.2401 24.632 96.8321 24.336C96.4321 24.04 95.8881 23.892 95.2001 23.892C94.8321 23.892 94.4681 23.952 94.1081 24.072C93.7481 24.192 93.4201 24.4 93.1241 24.696C92.8361 24.984 92.6041 25.384 92.4281 25.896C92.2521 26.4 92.1641 27.048 92.1641 27.84L90.4481 27.108C90.4481 26.004 90.6601 25.004 91.0841 24.108C91.5161 23.212 92.1481 22.5 92.9801 21.972C93.8121 21.436 94.8361 21.168 96.0521 21.168C97.0121 21.168 97.8041 21.328 98.4281 21.648C99.0521 21.968 99.5481 22.376 99.9161 22.872C100.284 23.368 100.556 23.896 100.732 24.456C100.908 25.016 101.02 25.548 101.068 26.052C101.124 26.548 101.152 26.952 101.152 27.264V34.5H98.2241ZM89.2361 34.5V21.54H91.8161V25.56H92.1641V34.5H89.2361ZM109.269 34.86C108.077 34.86 107.037 34.56 106.149 33.96C105.261 33.36 104.573 32.544 104.085 31.512C103.597 30.48 103.353 29.316 103.353 28.02C103.353 26.708 103.597 25.54 104.085 24.516C104.581 23.484 105.281 22.672 106.185 22.08C107.089 21.48 108.153 21.18 109.377 21.18C110.609 21.18 111.641 21.48 112.473 22.08C113.313 22.672 113.949 23.484 114.381 24.516C114.813 25.548 115.029 26.716 115.029 28.02C115.029 29.308 114.813 30.472 114.381 31.512C113.949 32.544 113.305 33.36 112.449 33.96C111.593 34.56 110.533 34.86 109.269 34.86ZM109.713 32.268C110.489 32.268 111.113 32.092 111.585 31.74C112.065 31.38 112.413 30.88 112.629 30.24C112.853 29.6 112.965 28.86 112.965 28.02C112.965 27.172 112.853 26.432 112.629 25.8C112.413 25.16 112.073 24.664 111.609 24.312C111.145 23.952 110.545 23.772 109.809 23.772C109.033 23.772 108.393 23.964 107.889 24.348C107.385 24.724 107.013 25.236 106.773 25.884C106.533 26.524 106.413 27.236 106.413 28.02C106.413 28.812 106.529 29.532 106.761 30.18C107.001 30.82 107.365 31.328 107.853 31.704C108.341 32.08 108.961 32.268 109.713 32.268ZM112.965 34.5V25.404H112.605V17.22H115.521V34.5H112.965ZM124.777 34.86C123.465 34.86 122.313 34.576 121.321 34.008C120.329 33.44 119.553 32.652 118.993 31.644C118.441 30.636 118.165 29.476 118.165 28.164C118.165 26.748 118.437 25.52 118.981 24.48C119.525 23.432 120.281 22.62 121.249 22.044C122.217 21.468 123.337 21.18 124.609 21.18C125.953 21.18 127.093 21.496 128.029 22.128C128.973 22.752 129.673 23.636 130.129 24.78C130.585 25.924 130.757 27.272 130.645 28.824H127.777V27.768C127.769 26.36 127.521 25.332 127.033 24.684C126.545 24.036 125.777 23.712 124.729 23.712C123.545 23.712 122.665 24.08 122.089 24.816C121.513 25.544 121.225 26.612 121.225 28.02C121.225 29.332 121.513 30.348 122.089 31.068C122.665 31.788 123.505 32.148 124.609 32.148C125.321 32.148 125.933 31.992 126.445 31.68C126.965 31.36 127.365 30.9 127.645 30.3L130.501 31.164C130.005 32.332 129.237 33.24 128.197 33.888C127.165 34.536 126.025 34.86 124.777 34.86ZM120.313 28.824V26.64H129.229V28.824H120.313ZM133.323 34.5V21.54H135.879V24.696L135.567 24.288C135.727 23.856 135.939 23.464 136.203 23.112C136.475 22.752 136.799 22.456 137.175 22.224C137.495 22.008 137.847 21.84 138.231 21.72C138.623 21.592 139.023 21.516 139.431 21.492C139.839 21.46 140.235 21.476 140.619 21.54V24.24C140.235 24.128 139.791 24.092 139.287 24.132C138.791 24.172 138.343 24.312 137.943 24.552C137.543 24.768 137.215 25.044 136.959 25.38C136.711 25.716 136.527 26.1 136.407 26.532C136.287 26.956 136.227 27.416 136.227 27.912V34.5H133.323Z" fill="black"/>
</svg>
